# xmcd CD database file
#
# Track frame offsets:
#	150
#	17825
#	61275
#	90325
#	123850
#	144862
#	173600
#	192562
#	222575
#	254000
#	279125
#	296062
#
# Disc length: 4116 seconds
#
# Revision: 0
# Processed by: cddbd v1.5.1PL0 Copyright (c) Steve Scherf et al.
# Submitted via: CDex 1.51
#
DISCID=ae10120c
DTITLE=Carey Bell's Blues Harp Band - Goin' On Main Street
DYEAR=1982
DGENRE=Blues
TTITLE0=Goin' On Main Street
TTITLE1=I Am Worried
TTITLE2=Heartaches And Pain
TTITLE3=Easy To Love You
TTITLE4=Train Ticket
TTITLE5=When A Woman Get In Trouble
TTITLE6=Tribute To Big Walter
TTITLE7=Blues Harp Blues By Three
TTITLE8=Man And The Blues
TTITLE9=When I Lay Down To Rest
TTITLE10=Who's Lousiana Red
TTITLE11=Regan Is For The Rich Man
EXTD=YEAR: 1982
EXTT0=
EXTT1=
EXTT2=
EXTT3=
EXTT4=
EXTT5=
EXTT6=
EXTT7=
EXTT8=
EXTT9=
EXTT10=
EXTT11=
PLAYORDER=
